<svg width="183" height="40" viewBox="0 0 183 40" fill="none" xmlns="http://www.w3.org/2000/svg">
<path d="M11.4811 40C8.98451 40 6.89853 39.5678 5.22317 38.7035C3.54781 37.8391 2.28308 36.5106 1.42898 34.7179C0.574877 32.8932 0.0985503 30.5402 0 27.6591L7.53911 26.5546C7.57196 28.2193 7.71978 29.5638 7.98258 30.5882C8.27823 31.6126 8.67243 32.3489 9.16519 32.7971C9.69079 33.2453 10.3149 33.4694 11.0376 33.4694C11.9574 33.4694 12.5487 33.1653 12.8116 32.557C13.1072 31.9488 13.255 31.3085 13.255 30.6363C13.255 29.0356 12.8608 27.6911 12.0724 26.6026C11.284 25.4822 10.2164 24.3617 8.86954 23.2413L5.42027 20.3121C3.90917 19.0636 2.62801 17.6551 1.57681 16.0864C0.558452 14.4858 0.0492751 12.517 0.0492751 10.1801C0.0492751 6.88275 1.0512 4.36975 3.05506 2.64106C5.05892 0.880352 7.78548 0 11.2347 0C13.37 0 15.0782 0.352141 16.3594 1.05642C17.6734 1.76071 18.6589 2.68908 19.3159 3.84154C20.0057 4.96199 20.4656 6.16247 20.6956 7.44298C20.9584 8.69148 21.1062 9.89196 21.1391 11.0444L13.5507 11.9568C13.5178 10.8043 13.4357 9.81193 13.3043 8.9796C13.2058 8.11525 12.9758 7.45898 12.6145 7.01081C12.2531 6.53061 11.6946 6.29052 10.9391 6.29052C10.1178 6.29052 9.51011 6.62665 9.11591 7.29892C8.75456 7.97119 8.57388 8.64346 8.57388 9.31573C8.57388 10.7563 8.91881 11.9408 9.60866 12.8691C10.3314 13.7655 11.2676 14.7099 12.4173 15.7023L15.7188 18.5354C17.4598 19.976 18.9217 21.6086 20.1043 23.4334C21.3197 25.2581 21.9275 27.515 21.9275 30.2041C21.9275 32.0288 21.5004 33.6935 20.6463 35.1981C19.7922 36.6707 18.5767 37.8391 16.9999 38.7035C15.456 39.5678 13.6164 40 11.4811 40Z" fill="#303030"/>
<path d="M24.72 39.4238V0.52821H38.1228C40.5209 0.52821 42.4919 0.976389 44.0359 1.87275C45.5798 2.73709 46.7296 4.01761 47.4851 5.71429C48.2407 7.37895 48.6185 9.41177 48.6185 11.8127C48.6185 14.8219 48.1093 17.1269 47.0909 18.7275C46.0726 20.2961 44.6929 21.3846 42.9518 21.9928C41.2108 22.601 39.2562 22.9052 37.0881 22.9052H33.5402V39.4238H24.72ZM33.5402 16.9028H36.4968C37.5808 16.9028 38.4021 16.7107 38.9605 16.3265C39.519 15.9424 39.8803 15.3661 40.0446 14.5978C40.2417 13.8295 40.3402 12.8531 40.3402 11.6687C40.3402 10.6763 40.2581 9.81192 40.0938 9.07563C39.9624 8.30732 39.6175 7.69908 39.0591 7.2509C38.5006 6.80272 37.6301 6.57863 36.4475 6.57863H33.5402V16.9028Z" fill="#303030"/>
<path d="M62.824 40C59.8346 40 57.4694 39.4878 55.7283 38.4634C53.9873 37.439 52.739 35.9664 51.9834 34.0456C51.2279 32.1249 50.8501 29.8359 50.8501 27.1789V12.7251C50.8501 10.036 51.2279 7.7471 51.9834 5.85834C52.739 3.96959 53.9873 2.52901 55.7283 1.53661C57.4694 0.512205 59.8346 0 62.824 0C65.8462 0 68.2278 0.512205 69.9689 1.53661C71.7428 2.52901 73.0075 3.96959 73.763 5.85834C74.5186 7.7471 74.8964 10.036 74.8964 12.7251V27.1789C74.8964 29.8359 74.5186 32.1249 73.763 34.0456C73.0075 35.9664 71.7428 37.439 69.9689 38.4634C68.2278 39.4878 65.8462 40 62.824 40ZM62.824 33.9016C63.7438 33.9016 64.4172 33.6775 64.8442 33.2293C65.2713 32.7811 65.5505 32.2049 65.6819 31.5006C65.8133 30.7963 65.879 30.076 65.879 29.3397V10.6122C65.879 9.84394 65.8133 9.12365 65.6819 8.45138C65.5505 7.7471 65.2713 7.17087 64.8442 6.72269C64.4172 6.27451 63.7438 6.05042 62.824 6.05042C61.9699 6.05042 61.3293 6.27451 60.9022 6.72269C60.4752 7.17087 60.1959 7.7471 60.0645 8.45138C59.9331 9.12365 59.8674 9.84394 59.8674 10.6122V29.3397C59.8674 30.076 59.9167 30.7963 60.0153 31.5006C60.1467 32.2049 60.4095 32.7811 60.8037 33.2293C61.2307 33.6775 61.9042 33.9016 62.824 33.9016Z" fill="#303030"/>
<path d="M78.786 39.4238V0.52821H89.7744C92.4681 0.52821 94.8005 0.816326 96.7715 1.39256C98.7425 1.96879 100.27 3.0092 101.354 4.5138C102.471 5.98639 103.029 8.08323 103.029 10.8043C103.029 12.405 102.898 13.8295 102.635 15.078C102.372 16.3265 101.88 17.415 101.157 18.3433C100.467 19.2397 99.4652 19.992 98.1512 20.6002L103.621 39.4238H94.5048L90.1193 21.9928H87.6063V39.4238H78.786ZM87.6063 17.0468H90.0701C91.3184 17.0468 92.2874 16.8387 92.9773 16.4226C93.6672 15.9744 94.1435 15.3501 94.4063 14.5498C94.7019 13.7175 94.8498 12.7251 94.8498 11.5726C94.8498 9.90796 94.5377 8.61145 93.9135 7.68307C93.2894 6.7547 92.1396 6.29052 90.4643 6.29052H87.6063V17.0468Z" fill="#303030"/>
<path d="M110.066 39.4238V6.91477H104.054V0.52821H124.898V6.91477H118.935V39.4238H110.066Z" fill="#303030"/>
<path d="M167.084 39.4236V23.5293L159.496 0.528076H167.823L171.618 12.821L175.018 0.528076H183L175.56 23.5293V39.4236H167.084Z" fill="#303030"/>
<path d="M148.258 10.4979L147.858 10.6315C141.707 12.3513 138.292 13.2402 137.612 13.2982C137 13.3504 136.361 13.106 135.695 12.5651C133.554 10.0912 132.442 8.39294 132.36 7.47027C132.271 6.48169 132.759 5.8092 133.823 5.45279C139.628 3.69609 144.435 2.65536 148.244 2.33062C152.121 2.00008 154.506 2.22841 155.399 3.01559C158.135 5.23953 159.526 6.61511 159.573 7.14236C159.621 7.6696 159.322 8.15994 158.677 8.61336C153.615 11.7678 148.423 15.3981 143.104 19.5042C137.846 23.5386 134.294 26.7302 132.449 29.079C132.455 29.1449 132.628 29.1634 132.968 29.1344C133.376 29.0996 134.84 28.6096 137.359 27.6642C139.941 26.6472 142.32 26.0459 144.497 25.8603C146.673 25.6748 148.168 25.9126 148.981 26.5738C152.799 30.1664 154.77 32.6548 154.894 34.0388C154.942 34.566 154.693 34.8528 154.149 34.8992C153.809 34.9282 153.17 34.6838 152.233 34.1661C151.364 33.6425 150.317 33.4329 149.092 33.5373C147.868 33.6417 146.86 33.8605 146.067 34.1937C138.379 37.1072 132.154 38.7668 127.393 39.1728C126.644 39.2366 125.531 38.6674 124.052 37.4653C122.568 36.1972 121.766 34.9042 121.648 33.586C121.459 31.4771 122.76 29.1746 125.551 26.6787C128.337 24.1169 132.388 21.1483 137.705 17.7729C143.995 13.7833 147.512 11.3583 148.258 10.4979Z" fill="#C1032F"/>
</svg>
