<svg width="90" height="65" viewBox="0 0 90 65" fill="none" xmlns="http://www.w3.org/2000/svg">
<g clip-path="url(#clip0_240_189)">
<path d="M18.4066 19.7849H18.4026C15.0449 19.7849 12.323 22.5408 12.323 25.9403V25.9444C12.323 29.3439 15.0449 32.0998 18.4026 32.0998H18.4066C21.7643 32.0998 24.4862 29.3439 24.4862 25.9444V25.9403C24.4862 22.5408 21.7643 19.7849 18.4066 19.7849Z" fill="#303030"/>
<path d="M63.2781 17.817C63.2781 8.01783 55.3594 0 45.6813 0C36.0032 0 28.0845 8.01783 28.0845 17.817V43.8546C28.0845 43.8546 63.2741 39.8863 63.2781 17.821V17.817Z" fill="#303030"/>
<path d="M0 52.3998C0 59.2166 5.5105 64.7958 12.2433 64.7958C18.9762 64.7958 24.4867 59.2166 24.4867 52.3998V34.2866C24.4867 34.2866 0 37.0499 0 52.3998ZM12.2433 55.658C10.472 55.658 9.0252 54.1932 9.0252 52.3998C9.0252 50.6063 10.472 49.1415 12.2433 49.1415C14.0147 49.1415 15.4615 50.6063 15.4615 52.3998C15.4615 54.1932 14.0147 55.658 12.2433 55.658Z" fill="#303030"/>
<path d="M30.3808 57.0662C29.7276 56.7091 29.2186 56.2101 28.8499 55.5771C28.4812 54.9441 28.2969 54.2299 28.2969 53.4346C28.2969 52.6394 28.4852 51.9252 28.8579 51.2922C29.2307 50.6592 29.7436 50.1642 30.3969 49.8031C31.0501 49.446 31.7795 49.2634 32.585 49.2634C33.2383 49.2634 33.8394 49.3811 34.3805 49.6124C34.9215 49.8437 35.3784 50.1804 35.7511 50.6187L34.7892 51.5316C34.2081 50.8986 33.4988 50.5822 32.6492 50.5822C32.1001 50.5822 31.6072 50.7039 31.1744 50.9473C30.7415 51.1908 30.4009 51.5276 30.1564 51.9617C29.912 52.3959 29.7917 52.8828 29.7917 53.4306C29.7917 53.9784 29.912 54.4693 30.1564 54.8994C30.4009 55.3336 30.7415 55.6704 31.1744 55.9138C31.6072 56.1573 32.1001 56.279 32.6492 56.279C33.4948 56.279 34.2081 55.9585 34.7892 55.3174L35.7511 56.2425C35.3784 56.6807 34.9175 57.0175 34.3725 57.2488C33.8274 57.4801 33.2263 57.5978 32.573 57.5978C31.7635 57.5978 31.0341 57.4192 30.3849 57.0581L30.3808 57.0662Z" fill="#303030"/>
<path d="M38.54 57.0661C37.8828 56.7091 37.3698 56.21 36.9971 55.573C36.6244 54.9359 36.436 54.2258 36.436 53.4386C36.436 52.6515 36.6204 51.9373 36.9971 51.3043C37.3698 50.6673 37.8828 50.1682 38.54 49.8111C39.1973 49.4541 39.9307 49.2715 40.7483 49.2715C41.5658 49.2715 42.2992 49.45 42.9565 49.8111C43.6137 50.1682 44.1267 50.6673 44.4994 51.3003C44.8721 51.9333 45.0605 52.6474 45.0605 53.4427C45.0605 54.238 44.8721 54.9521 44.4994 55.5851C44.1267 56.2181 43.6097 56.7131 42.9565 57.0743C42.2992 57.4313 41.5658 57.6139 40.7483 57.6139C39.9307 57.6139 39.1973 57.4354 38.54 57.0743V57.0661ZM42.187 55.9219C42.6158 55.6785 42.9484 55.3376 43.1929 54.9034C43.4374 54.4693 43.5576 53.9783 43.5576 53.4386C43.5576 52.899 43.4374 52.4121 43.1929 51.9738C42.9484 51.5397 42.6118 51.1988 42.187 50.9554C41.7582 50.7119 41.2813 50.5902 40.7442 50.5902C40.2072 50.5902 39.7303 50.7119 39.3055 50.9554C38.8767 51.1988 38.5441 51.5397 38.2996 51.9738C38.0551 52.4121 37.9349 52.899 37.9349 53.4386C37.9349 53.9783 38.0551 54.4693 38.2996 54.9034C38.5441 55.3417 38.8807 55.6785 39.3055 55.9219C39.7303 56.1654 40.2112 56.2871 40.7442 56.2871C41.2773 56.2871 41.7582 56.1654 42.187 55.9219Z" fill="#303030"/>
<path d="M53.989 57.4922L53.977 52.1199L51.348 56.5671H50.6827L48.0537 52.1889V57.4922H46.635V49.3892H47.8573L51.0354 54.7614L54.1573 49.3892H55.3797L55.3917 57.4922H53.985H53.989Z" fill="#303030"/>
<path d="M62.6612 49.7341C63.1741 49.9653 63.5709 50.2981 63.8434 50.7282C64.1159 51.1623 64.2562 51.6736 64.2562 52.2701C64.2562 52.8665 64.1199 53.3697 63.8434 53.8038C63.5709 54.2421 63.1741 54.5748 62.6612 54.8061C62.1482 55.0374 61.543 55.155 60.8497 55.155H59.0423V57.4922H57.5554V49.3892H60.8497C61.543 49.3892 62.1482 49.5068 62.6612 49.7381V49.7341ZM62.2564 53.463C62.593 53.183 62.7573 52.7894 62.7573 52.2701C62.7573 51.7507 62.589 51.3571 62.2564 51.0771C61.9197 50.8012 61.4308 50.6592 60.7816 50.6592H59.0423V53.8769H60.7816C61.4308 53.8769 61.9197 53.7389 62.2564 53.4589V53.463Z" fill="#303030"/>
<path d="M70.5318 55.6134H66.5282L65.7387 57.4881H64.2078L67.8106 49.385H69.2734L72.8883 57.4881H71.3333L70.5318 55.6134ZM70.0389 54.4327L68.528 50.8904L67.0291 54.4327H70.0349H70.0389Z" fill="#303030"/>
<path d="M81.0195 49.385V57.4881H79.7971L75.3847 51.9981V57.4881H73.9099V49.385H75.1322L79.5447 54.875V49.385H81.0195Z" fill="#303030"/>
<path d="M86.6218 54.6316V57.4922H85.135V54.6559L81.989 49.3892H83.58L85.9245 53.3372L88.293 49.3892H89.7558L86.6218 54.6356V54.6316Z" fill="#303030"/>
</g>
<defs>
<clipPath id="clip0_240_189">
<rect width="89.7555" height="64.8" fill="white"/>
</clipPath>
</defs>
</svg>
