<svg width="86" height="96" viewBox="0 0 86 96" fill="none" xmlns="http://www.w3.org/2000/svg">
<g clip-path="url(#clip0_240_163)">
<path d="M38.1697 15.7672L45.6807 28.9453C46.529 28.9293 47.3811 28.9212 48.2373 28.9212C50.4371 28.9212 52.6052 28.9694 54.7416 29.0697L38.1697 0L19.9608 31.9398C23.1238 31.2092 26.477 30.5991 29.9848 30.1214L38.1697 15.7632V15.7672ZM24.6854 28.5038L38.1697 4.84897L50.5203 26.5128C49.7593 26.5008 48.9983 26.4967 48.2412 26.4967C47.8488 26.4967 47.4564 26.4967 47.0561 26.5008L40.2466 14.5509L38.1736 10.9142L36.0967 14.5509L28.4985 27.8816C27.2142 28.0702 25.9419 28.275 24.6894 28.4997L24.6854 28.5038Z" fill="#303030"/>
<path d="M27.0002 72.5377C17.6064 68.3591 11.8671 62.7635 11.8671 56.618C11.8671 54.5708 12.5013 52.5879 13.6983 50.6973H67.0684L57.3456 33.6416C61.0437 33.3285 64.8765 33.1679 68.8005 33.1679C74.084 33.1679 79.201 33.4649 84.0565 34.0189C83.7751 33.9266 83.4897 33.8383 83.2043 33.7499C83.4897 33.8383 83.779 33.9266 84.0565 34.0189C84.3815 34.055 84.7065 34.0952 85.0315 34.1353C84.1754 33.9145 83.3034 33.7058 82.4195 33.5051C74.4923 31.7148 65.368 30.6912 55.6611 30.6792C55.6017 30.6792 55.5462 30.6792 55.4867 30.6792C53.275 30.6792 51.099 30.7314 48.9547 30.8357C48.2412 30.8679 47.5317 30.908 46.8262 30.9562C40.0603 31.3857 33.7027 32.3129 27.9832 33.6416C27.4877 33.758 27.0002 33.8744 26.5166 33.9948C23.1238 34.8378 19.9727 35.8292 17.1149 36.9411C6.56375 41.0354 0 46.8077 0 53.206C0 61.4188 10.8246 68.6039 27.0002 72.5417V72.5377ZM48.9269 34.6371L53.5881 42.8137H22.775C29.2991 39.1288 38.3758 36.2547 48.9269 34.6371Z" fill="#303030"/>
</g>
<defs>
<clipPath id="clip0_240_163">
<rect width="85.0315" height="96" fill="white"/>
</clipPath>
</defs>
</svg>
