<svg width="92" height="74" viewBox="0 0 92 74" fill="none" xmlns="http://www.w3.org/2000/svg">
<g clip-path="url(#clip0_240_169)">
<path d="M6.947 61.5074C7.304 61.9582 7.48732 62.4874 7.48732 63.09C7.48732 63.9328 7.20751 64.5992 6.65272 65.0843C6.09792 65.5742 5.29226 65.8143 4.24057 65.8143H0V55.7844H4.15373C5.15236 55.7844 5.91942 56.0049 6.45492 56.4508C6.99042 56.8967 7.26058 57.519 7.26058 58.3274C7.26058 58.9546 7.10138 59.4642 6.77815 59.8611C6.45492 60.2579 6.03521 60.5176 5.51418 60.6401C6.1124 60.7626 6.59 61.0517 6.947 61.4976V61.5074ZM1.97314 59.9934H3.74849C4.24057 59.9934 4.61686 59.8807 4.87255 59.6602C5.12824 59.4397 5.25849 59.1163 5.25849 58.6998C5.25849 58.2833 5.13306 57.9599 4.8822 57.7345C4.63133 57.5092 4.24539 57.3916 3.71954 57.3916H1.97314V59.9934ZM5.05105 63.8348C5.33086 63.6045 5.47076 63.2664 5.47076 62.8205C5.47076 62.3747 5.33086 62.0317 5.04622 61.7916C4.76159 61.5515 4.35635 61.429 3.83532 61.429H1.97314V64.1876H3.8498C4.37082 64.1876 4.77124 64.07 5.05105 63.8397V63.8348Z" fill="#303030"/>
<path d="M15.418 65.8192L13.1071 61.9092H12.2388V65.8192H10.2656V55.7893H14.0286C15.1768 55.7893 16.05 56.0735 16.653 56.6419C17.256 57.2102 17.5552 57.9599 17.5552 58.886C17.5552 59.6455 17.3477 60.2775 16.9328 60.792C16.5179 61.3016 15.9197 61.6446 15.1333 61.8161L17.5937 65.8241H15.4132L15.418 65.8192ZM12.2436 60.5323H13.8646C14.9934 60.5323 15.5579 60.0276 15.5579 59.0134C15.5579 58.5283 15.418 58.1559 15.143 57.8815C14.868 57.612 14.4386 57.4748 13.8646 57.4748H12.2436V60.5274V60.5323Z" fill="#303030"/>
<path d="M26.3013 63.8006H22.3405L21.641 65.8193H19.5569L23.1944 55.9021H25.4474L29.0704 65.8193H26.9863L26.3013 63.8006ZM25.7706 62.2816L24.3137 58.0482L22.8567 62.2816H25.7658H25.7706Z" fill="#303030"/>
<path d="M39.9005 65.8192H37.9274L33.5083 58.9987V65.8192H31.5352V55.7893H33.5083L37.9274 62.6686V55.7893H39.9005V65.8192Z" fill="#303030"/>
<path d="M51.1601 63.4183C50.7501 64.1778 50.1567 64.7657 49.3751 65.1871C48.5984 65.6085 47.6721 65.8192 46.5963 65.8192H43.0842V55.7893H46.5963C47.6673 55.7893 48.5936 55.9951 49.3751 56.4067C50.1518 56.8183 50.7501 57.4013 51.1601 58.1559C51.5702 58.9105 51.7776 59.7875 51.7776 60.792C51.7776 61.7965 51.5702 62.6637 51.1601 63.4232V63.4183ZM48.9023 63.1782C49.4861 62.6098 49.7755 61.8161 49.7755 60.792C49.7755 59.7679 49.4861 58.9595 48.9023 58.3911C48.3186 57.8227 47.4985 57.5385 46.4323 57.5385H45.0622V64.0308H46.4323C47.4936 64.0308 48.3186 63.7466 48.9023 63.1782Z" fill="#303030"/>
<path d="M27.5361 0C27.5361 0 53.0036 9.76531 52.4633 23.8964H52.473V47.7927C52.473 47.7927 27.0055 38.0274 27.5458 23.8964H27.5361V0Z" fill="#303030"/>
<path d="M75.1499 42.2022C79.8729 38.9047 85.4064 36.7634 91.3258 36.1461V28.6641C87.9005 30.0017 84.6827 31.9224 81.8026 34.4017C79.1637 36.6752 76.9349 39.3064 75.1499 42.2022Z" fill="#303030"/>
<path d="M72.2603 44.456C74.3202 40.2275 77.2195 36.4252 80.8714 33.2845C84.0215 30.57 87.5625 28.4974 91.3301 27.096V5.53687C91.3301 5.53687 55.0624 19.4425 55.8294 39.566H55.8149V73.5952C55.8149 73.5952 57.431 72.9729 59.9733 71.8067C59.9637 70.7141 59.9974 69.6165 60.0891 68.5141C60.8754 58.8027 65.4728 50.3162 72.2555 44.4462L72.2603 44.456Z" fill="#303030"/>
<path d="M68.8114 57.0977C69.0044 54.7114 69.4337 52.3791 70.0802 50.1301C65.8493 55.2014 63.0753 61.6055 62.4964 68.7249C62.4433 69.3717 62.4144 70.0184 62.3999 70.6652C64.4599 69.6559 66.8576 68.4064 69.3758 66.9316C68.7439 63.7369 68.5412 60.4344 68.8114 57.0977Z" fill="#303030"/>
<path d="M70.2535 57.2201C70.0075 60.2432 70.1715 63.237 70.7022 66.1426C80.6113 60.1207 91.7506 50.8209 91.3213 39.571H91.3309V38.6106C84.1186 39.4191 77.5382 42.6578 72.4775 47.5527C71.2859 50.6053 70.5285 53.8539 70.2583 57.2152L70.2535 57.2201Z" fill="#303030"/>
</g>
<defs>
<clipPath id="clip0_240_169">
<rect width="91.3302" height="73.6" fill="white"/>
</clipPath>
</defs>
</svg>
