<svg width="108" height="26" viewBox="0 0 108 26" fill="none" xmlns="http://www.w3.org/2000/svg">
<path d="M0 19.7228L4.70057 18.1003C4.70057 18.7012 4.87329 19.23 5.21874 19.6868C5.56419 20.1435 5.90964 20.4439 6.25509 20.5882L6.77326 20.8406V25.5279C4.67589 25.5279 2.88696 24.6385 1.40647 22.8597C0.493498 21.73 0.0246749 20.6843 0 19.7228ZM0.296099 7.1031C0.296099 4.45897 1.45582 2.47587 3.77526 1.1538C4.83628 0.528826 5.83561 0.204319 6.77326 0.180282V4.93972C6.15639 5.10798 5.6999 5.54066 5.4038 6.23775C5.3051 6.45408 5.25575 6.68244 5.25575 6.92282C5.25575 7.90836 6.00834 8.74967 7.51351 9.44676C7.83428 9.59099 8.35245 9.80732 9.06803 10.0958C10.2524 10.5525 11.0914 10.9251 11.5849 11.2135C13.5835 12.3673 14.916 13.5452 15.5822 14.747C16.0757 15.6845 16.3224 16.7301 16.3224 17.8839C16.3224 20.0714 15.4712 21.9463 13.7686 23.5087C12.3128 24.8548 10.6596 25.5279 8.80894 25.5279V20.8406C9.77126 20.7204 10.4498 20.2276 10.8446 19.3623C11.0173 18.9777 11.1037 18.557 11.1037 18.1003C11.1037 16.8744 10.1661 15.8648 8.29077 15.0715C7.94532 14.9273 7.40247 14.723 6.66222 14.4586C5.7986 14.1701 5.19407 13.9418 4.84862 13.7735C2.72658 12.788 1.36946 11.514 0.777259 9.95155C0.456486 9.11023 0.296099 8.16075 0.296099 7.1031ZM8.80894 4.93972V0.180282C10.8816 0.180282 12.6212 1.03361 14.0277 2.74028C14.842 3.74986 15.2614 4.66329 15.2861 5.48056L10.4745 7.03099C10.4745 6.02141 9.96866 5.33634 8.95699 4.97577C8.85829 4.95174 8.80894 4.93972 8.80894 4.93972Z" fill="#303030"/>
<path d="M18.6172 25.4197V0.180282H23.836V25.4197H18.6172ZM25.8346 13.9177V8.94197H27.056C28.1171 8.94197 28.7339 8.48526 28.9066 7.57183C28.9313 7.42761 28.9437 7.27136 28.9437 7.1031C28.7956 5.92526 28.1664 5.28826 27.056 5.19211H25.8346V0.180282H27.2041C31.8183 0.348545 34.1624 2.60808 34.2364 6.95887C34.2364 10.1799 33.2864 12.2592 31.3865 13.1966C30.3255 13.7014 28.9313 13.9418 27.2041 13.9177C27.1301 13.9177 26.6736 13.9177 25.8346 13.9177Z" fill="#303030"/>
<path d="M36.1981 18.3887V6.5262C36.1981 5.25221 36.7533 3.95418 37.8636 2.63211C39.3441 0.901408 41.2194 0.0240376 43.4895 0V5.08394C42.4778 5.10798 41.8116 5.66085 41.4908 6.74254C41.4415 6.9108 41.4168 7.03099 41.4168 7.1031V18.3887C41.4168 19.3743 41.972 20.0473 43.0824 20.4079C43.2551 20.456 43.3785 20.48 43.4525 20.48V25.6C42.046 25.6 40.6396 25.1072 39.2331 24.1217C37.2344 22.6794 36.2228 20.7684 36.1981 18.3887ZM45.4882 25.6V20.48C45.883 20.48 46.3271 20.2757 46.8206 19.867C47.2894 19.4584 47.5362 18.9656 47.5609 18.3887V7.1031C47.5609 6.67042 47.3511 6.21371 46.9317 5.73296C46.5369 5.32432 46.0557 5.10798 45.4882 5.08394V0C47.9803 0 49.979 1.04563 51.4842 3.1369C52.3478 4.33878 52.7796 5.46854 52.7796 6.5262V18.3887C52.7796 21.0569 51.5582 23.1001 49.1154 24.5183C47.8323 25.2394 46.6232 25.6 45.4882 25.6Z" fill="#303030"/>
<path d="M55.7406 25.4197V0.180282H60.9593V25.4197H55.7406ZM62.958 15.1076V10.6006H63.4392C65.0184 10.6006 66.03 9.97559 66.4742 8.72563C66.5729 8.41315 66.6222 8.08864 66.6222 7.75211C66.6222 6.47812 66.0054 5.62479 64.7716 5.19211C64.3768 5.04789 63.9327 4.97577 63.4392 4.97577H62.958V0.180282H63.7723C67.0047 0.228357 69.2748 1.3461 70.5826 3.53352C71.1994 4.56714 71.5079 5.73296 71.5079 7.03099C71.4832 9.50685 70.6442 11.4058 68.991 12.7279C70.2248 13.4971 71.0144 14.8913 71.3598 16.9104C71.3845 17.1508 71.4092 17.3792 71.4338 17.5955L72.063 25.4197H67.2514L66.6963 19.0017C66.4989 17.0787 65.9313 15.8888 64.9937 15.4321C64.5495 15.2398 64.0067 15.1316 63.3651 15.1076H62.958Z" fill="#303030"/>
<path d="M73.4325 5.15606V0.180282H89.4589V5.15606H84.0551V25.4197H78.8363V5.15606H73.4325Z" fill="#303030"/>
<path d="M90.7543 19.7228L95.4549 18.1003C95.4549 18.7012 95.6276 19.23 95.973 19.6868C96.3185 20.1435 96.6639 20.4439 97.0094 20.5882L97.5275 20.8406V25.5279C95.4302 25.5279 93.6413 24.6385 92.1608 22.8597C91.2478 21.73 90.779 20.6843 90.7543 19.7228ZM91.0504 7.1031C91.0504 4.45897 92.2101 2.47587 94.5295 1.1538C95.5906 0.528826 96.5899 0.204319 97.5275 0.180282V4.93972C96.9107 5.10798 96.4542 5.54066 96.1581 6.23775C96.0594 6.45408 96.01 6.68244 96.01 6.92282C96.01 7.90836 96.7626 8.74967 98.2678 9.44676C98.5886 9.59099 99.1067 9.80732 99.8223 10.0958C101.007 10.5525 101.846 10.9251 102.339 11.2135C104.338 12.3673 105.67 13.5452 106.336 14.747C106.83 15.6845 107.077 16.7301 107.077 17.8839C107.077 20.0714 106.225 21.9463 104.523 23.5087C103.067 24.8548 101.414 25.5279 99.5632 25.5279V20.8406C100.526 20.7204 101.204 20.2276 101.599 19.3623C101.772 18.9777 101.858 18.557 101.858 18.1003C101.858 16.8744 100.92 15.8648 99.0451 15.0715C98.6996 14.9273 98.1568 14.723 97.4165 14.4586C96.5529 14.1701 95.9484 13.9418 95.6029 13.7735C93.4809 12.788 92.1237 11.514 91.5315 9.95155C91.2108 9.11023 91.0504 8.16075 91.0504 7.1031ZM99.5632 4.93972V0.180282C101.636 0.180282 103.376 1.03361 104.782 2.74028C105.596 3.74986 106.016 4.66329 106.04 5.48056L101.229 7.03099C101.229 6.02141 100.723 5.33634 99.7113 4.97577C99.6126 4.95174 99.5632 4.93972 99.5632 4.93972Z" fill="#303030"/>
</svg>
