<?xml version="1.0" encoding="UTF-8" standalone="no"?>
<!-- Created with Inkscape (http://www.inkscape.org/) -->

<svg
   version="1.1"
   id="svg1"
   width="634.61334"
   height="666.34668"
   viewBox="0 0 634.61334 666.34668"
   sodipodi:docname="upay.eps"
   xmlns:inkscape="http://www.inkscape.org/namespaces/inkscape"
   xmlns:sodipodi="http://sodipodi.sourceforge.net/DTD/sodipodi-0.dtd"
   xmlns="http://www.w3.org/2000/svg"
   xmlns:svg="http://www.w3.org/2000/svg">
  <defs
     id="defs1" />
  <sodipodi:namedview
     id="namedview1"
     pagecolor="#ffffff"
     bordercolor="#000000"
     borderopacity="0.25"
     inkscape:showpageshadow="2"
     inkscape:pageopacity="0.0"
     inkscape:pagecheckerboard="0"
     inkscape:deskcolor="#d1d1d1">
    <inkscape:page
       x="0"
       y="0"
       inkscape:label="1"
       id="page1"
       width="634.61334"
       height="666.34668"
       margin="0"
       bleed="0" />
  </sodipodi:namedview>
  <g
     id="g1"
     inkscape:groupmode="layer"
     inkscape:label="1">
    <g
       id="group-R5">
      <path
         id="path2"
         d="M 4015.81,0 H 743.773 C 332.996,0 0,333 0,743.77 v 3510.09 c 0,410.77 332.996,743.77 743.773,743.77 H 4015.81 c 410.78,0 743.77,-333 743.77,-743.77 V 743.77 C 4759.58,333 4426.59,0 4015.81,0"
         style="fill:#e0e0e0;fill-opacity:1;fill-rule:nonzero;stroke:none"
         transform="matrix(0.13333333,0,0,-0.13333333,0,666.34667)" />
      <path
         id="path3"
         d="m 2047.77,1168.59 c 14.68,0.71 23.75,-1.35 30.25,1.83 99.4,48.8 185.31,115.58 258.89,198.09 23.26,26.08 4.26,43.02 -16.95,55.03 -79.54,45.01 -166.12,66 -256.9,64.5 -47.66,-0.79 -55.76,-20.44 -26.61,-58.13 42.05,-54.37 51.05,-113.4 33.05,-178.27 -7.03,-25.34 -13.34,-50.88 -21.73,-83.05 z m 392.92,25.81 c -128.85,-82.16 -254.6,-165.66 -383.88,-243.279 -58.97,-35.402 -121.88,-20.941 -168.95,25.789 -33.36,33.12 -46.2,70.64 -29.75,117.87 14.12,40.55 25.7,82.41 33.67,124.58 11.65,61.66 -4.5,118.45 -40.17,169.81 -7.59,10.93 -15.79,21.54 -22.26,33.11 -54.9,98.04 -25.46,190.27 80.86,223.53 163.99,51.3 321.76,30.65 467.36,-64.31 18.09,-11.79 34.99,-25.39 52.58,-37.96 0.81,-0.58 2.98,0.74 10.57,2.91 0,27.2 0.34,56.42 -0.08,85.62 -0.53,36.67 16.28,56.26 53.77,56.27 141.62,0.03 283.24,0.01 424.86,0.02 35.23,0.01 50.74,-17.53 50.68,-52.74 -0.39,-249.92 -0.48,-499.85 0.11,-749.768 0.09,-37.852 -15.63,-54.672 -53.72,-54.34 -149.83,1.277 -138.35,-15.41 -138.14,130.109 0.22,159.949 0.27,319.899 -0.09,479.849 -0.13,56.8 -2.7,56.4 -76.41,58.48 -44.57,1.27 -66.32,-8.28 -65.46,-60.35 2.96,-179.9 1.26,-359.87 1.06,-539.811 -0.07,-56.379 -11.2,-67.73 -66.23,-67.988 -136.01,-0.653 -131.66,-11.481 -130.5,129.019 0.67,81.03 0.12,162.06 0.12,233.58"
         style="fill:#444343;fill-opacity:1;fill-rule:nonzero;stroke:none"
         transform="matrix(0.13333333,0,0,-0.13333333,0,666.34667)" />
      <path
         id="path4"
         d="m 1253.24,1501 c -77.49,0 -154.01,1.46 -230.44,-0.56 -43.796,-1.15 -63.417,13.38 -63.562,59.99 -0.394,127.98 -1.793,127.98 127.512,127.98 101.65,0 203.3,0.22 304.94,-0.12 31.88,-0.1 66.53,2.73 66.07,42.3 -0.46,40.47 -32.93,55.69 -70.58,52.49 -72.8,-6.19 -145.38,-19.27 -218.14,-19.99 -43.36,-0.43 -89.64,10.85 -129.72,28.16 -66.968,28.93 -80.996,134.59 -26.25,182.55 11.56,10.14 42.52,14.82 53.06,6.84 97.49,-73.82 202.38,-44.24 307.26,-28.37 34.21,5.18 70.4,9.28 104.06,3.83 119.84,-19.42 178.05,-118.04 144.11,-237.54 -2.24,-7.89 -3.86,-15.96 -7.25,-30.18 30.49,0 58.26,-0.11 86.04,0.02 37.99,0.19 58.6,-14.91 58.13,-56.59 -1.64,-143.95 14.14,-130.95 -126.5,-130.82 -49.99,0.04 -100.01,-1.09 -149.95,0.4 -28.27,0.85 -41.48,-6.08 -42.9,-38.2 -5.56,-125.66 12.52,-141.96 135.1,-114.26 34.04,7.69 67.72,17.37 102.06,23.19 41.64,7.05 78.07,-15.28 79.57,-55.26 2.86,-76.34 9.56,-154.99 -4.61,-228.99 -25.95,-135.491 -128.04,-205.839 -251.81,-244.038 -99.16,-30.602 -201.24,-25.273 -300.39,3.199 -144.81,41.598 -239.296,172.709 -247.23,345.389 -2.957,64.36 4.039,129.45 10.215,193.85 3.442,35.88 25.649,56.59 65.145,52.32 11.53,-1.24 23.31,-0.14 34.97,-0.19 66.97,-0.25 72.7,-8.74 76,-73.93 3.51,-69.46 9.17,-139.26 20.79,-207.75 13.3,-78.35 65.09,-124.22 144.22,-127.64 57.04,-2.47 115.29,2.92 171.6,12.82 25.54,4.49 53.17,24 69.79,44.76 16.93,21.14 21.49,52.19 31.47,78.9 -23.81,0.83 -47.82,4 -71.38,1.97 -41.31,-3.54 -82.37,-14.9 -123.49,-14.7 -87.43,0.42 -119.33,35.1 -120.36,122.79 -0.82,69.95 -0.81,139.91 -1.4,209.87 -0.02,2.99 -2.26,5.95 -6.15,15.51"
         style="fill:#444343;fill-opacity:1;fill-rule:nonzero;stroke:none"
         transform="matrix(0.13333333,0,0,-0.13333333,0,666.34667)" />
      <path
         id="path5"
         d="m 3427.75,1500.97 c -39.96,0 -79.98,1.26 -119.84,-0.73 -12.73,-0.63 -25.04,-9.86 -37.54,-15.16 7.16,-12.45 11.33,-30.19 22.09,-36.27 24.25,-13.68 51.79,-21.53 77.94,-31.87 107,-42.33 124.62,-158.4 33.17,-228.95 -27.29,-21.04 -61.47,-32.94 -89.98,-52.67 -14.8,-10.25 -24.1,-28.43 -35.89,-43.03 16.38,-7.71 32.24,-20.56 49.21,-22.26 82.5,-8.29 165.38,-12.73 247.96,-20.37 33.7,-3.12 46.34,11.31 44.69,42.56 -1.75,33.18 -4.98,66.31 -5.95,99.52 -2.35,79.83 -3.46,159.7 -5.67,239.54 -1.25,45.04 -20.46,72.14 -70.31,70 -36.57,-1.57 -73.25,-0.31 -109.88,-0.31 z m 380.33,-207.9 c -0.01,-106.65 0.67,-213.31 -0.2,-319.961 -0.84,-102.949 -75.49,-164.519 -172.59,-134.179 -147.68,46.129 -297.53,49.621 -449.53,41.25 -108.03,-5.938 -144.46,30.09 -145.78,138.88 -0.04,3.34 0,6.67 -0.01,10 -0.47,147.95 0.05,146.6 138.3,200.95 26.58,10.45 66.98,36.42 66.62,54.57 -0.84,43.26 -46.45,42.64 -80.83,47.12 -95.1,12.39 -121.6,40.55 -123.59,135.27 -1.16,54.96 0.51,109.98 0.12,164.96 -0.29,40.11 19.67,56.72 58.71,56.65 216.64,-0.4 433.28,-0.57 649.92,0.15 42.76,0.14 59.65,-18.77 59.24,-60.7 -1.1,-111.64 -0.38,-223.3 -0.38,-334.96"
         style="fill:#444343;fill-opacity:1;fill-rule:nonzero;stroke:none"
         transform="matrix(0.13333333,0,0,-0.13333333,0,666.34667)" />
      <path
         id="path6"
         d="m 3404.12,551.75 c -72.16,-0.43 -130.27,57.039 -130.56,129.121 -0.3,73.418 55.33,129.211 129.2,129.57 73.18,0.36 130.74,-55.871 131.33,-128.269 0.57,-71.051 -58.16,-129.992 -129.97,-130.422"
         style="fill:#444343;fill-opacity:1;fill-rule:nonzero;stroke:none"
         transform="matrix(0.13333333,0,0,-0.13333333,0,666.34667)" />
      <path
         id="path7"
         d="m 3512.83,2593.07 c -0.39,-0.6 -0.59,-0.9 -0.59,-0.9 -115,-147.8 -264.41,-272.3 -437.81,-364 -183.7,-88.3 -399.69,-120.3 -603.7,-124.2 103,44.2 175.2,147.1 175.2,266.9 0,146.8 -108.4,268.1 -249.1,287.5 378.8,13.5 683.2,287.6 698.01,628.7 0.39,8.6 0.59,17.3 0.59,26.1 0,18.2 -0.79,36.2 -2.5,53.9 -0.1,30.6 0.4,65.2 2.5,94.3 5,70.8 102.9,120.4 102.9,120.4 0,0 311.1,0 394.7,0 87,-13.4 113.7,-107 113.7,-107 48.8,-494 -180.9,-861.3 -193.9,-881.7"
         style="fill:#26479a;fill-opacity:1;fill-rule:nonzero;stroke:none"
         transform="matrix(0.13333333,0,0,-0.13333333,0,666.34667)" />
      <path
         id="path8"
         d="m 1681.89,4112.03 c 0,-184.38 -149.47,-333.85 -333.85,-333.85 -184.38,0 -333.85,149.47 -333.85,333.85 0,184.38 149.47,333.85 333.85,333.85 184.38,0 333.85,-149.47 333.85,-333.85"
         style="fill:#fad506;fill-opacity:1;fill-rule:nonzero;stroke:none"
         transform="matrix(0.13333333,0,0,-0.13333333,0,666.34667)" />
      <path
         id="path9"
         d="m 3713.53,4112.03 c 0,-184.38 -149.47,-333.85 -333.85,-333.85 -184.38,0 -333.85,149.47 -333.85,333.85 0,184.38 149.47,333.85 333.85,333.85 184.38,0 333.85,-149.47 333.85,-333.85"
         style="fill:#26479a;fill-opacity:1;fill-rule:nonzero;stroke:none"
         transform="matrix(0.13333333,0,0,-0.13333333,0,666.34667)" />
      <path
         id="path10"
         d="m 2645.93,2370.87 c 0,-119.8 -72.2,-222.7 -175.2,-266.9 -83.8,-1.7 -165.6,1.4 -242.4,7.3 -273.39,20.9 -482.7,76.8 -490.7,78.9 -0.1,0.1 -0.19,0.1 -0.19,0.1 -278.31,126.8 -503.11,335 -635.61,589.9 h -0.1 c -1.2,2.2 -2.4,4.5 -3.6,6.8 -100.095,196.2 -82.8,686.2 -82.8,686.2 2.1,80.1 99.4,110.4 99.4,110.4 h 393.7 c 76.21,-8.5 114.3,-99.5 114.3,-99.5 l 16.7,-121.2 c -12.9,-59.6 -0.5,-131.7 17.61,-193.6 0,-0.1 0.1,-0.2 0.1,-0.3 11.99,-48.2 29.9,-94.4 53.09,-137.9 0.2,-0.5 0.5,-0.9 0.7,-1.4 0.3,-0.5 0.5,-1 0.7,-1.3 0.1,-0.3 0.2,-0.4 0.2,-0.4 111.7,-207.9 341.7,-354.5 611.5,-369 14.6,-0.8 29.3,-1.2 44.11,-1.2 9.9,0 19.7,0.2 29.39,0.6 140.7,-19.4 249.1,-140.7 249.1,-287.5"
         style="fill:#fad506;fill-opacity:1;fill-rule:nonzero;stroke:none"
         transform="matrix(0.13333333,0,0,-0.13333333,0,666.34667)" />
    </g>
  </g>
</svg>
